PathFileType	4	(X/Y/Z)	Patient4_TMGait_0pt7_01_right_04.trc.trc
DataRate	CameraRate	NumFrames	NumMarkers	Units	OrigDataRate	OrigDataStartFrame	OrigNumFrames
84.337349397590	84.337349397590	5	33	mm	84.337349397590	53	       141
Frame#	Time	Sacral			L.Shoulder			Chest			R.Shoulder			Neck			R.ASIS			L.ASIS			R.Thigh.Superior			R.Thigh.Lateral			R.Thigh.Inferior			R.Patella			L.Thigh.Superior			L.Thigh.Lateral			L.Thigh.Inferior			L.Patella			L.Shank.Superior			L.Shank.Lateral			L.Shank.Inferior			R.Shank.Superior			R.Shank.Lateral			R.Shank.Inferior			R.Heel			R.Midfoot.Superior			R.Midfoot.Lateral			R.Toe			L.Heel			L.Midfoot.Lateral			L.Midfoot.Superior			L.Toe			L.Elbow			L.Wrist			R.Elbow			R.Wrist			
		X1	Y1	Z1	X2	Y2	Z2	X3	Y3	Z3	X4	Y4	Z4	X5	Y5	Z5	X6	Y6	Z6	X7	Y7	Z7	X8	Y8	Z8	X9	Y9	Z9	X10	Y10	Z10	X11	Y11	Z11	X12	Y12	Z12	X13	Y13	Z13	X14	Y14	Z14	X15	Y15	Z15	X16	Y16	Z16	X17	Y17	Z17	X18	Y18	Z18	X19	Y19	Z19	X20	Y20	Z20	X21	Y21	Z21	X22	Y22	Z22	X23	Y23	Z23	X24	Y24	Z24	X25	Y25	Z25	X26	Y26	Z26	X27	Y27	Z27	X28	Y28	Z28	X29	Y29	Z29	X30	Y30	Z30	X31	Y31	Z31	X32	Y32	Z32	X33	Y33	Z33	

53	4.656571428571	678.114523191624	1011.048008421653	572.919192879959	870.441815994882	1441.298337187758	404.979819383047	975.798081451401	1355.454205196251	557.612709880336	905.622469194995	1429.800987627033	738.052085790201	886.464648863017	1494.035266556853	564.262682202400	906.025552499750	946.657927953656	687.833504400065	887.852885879923	964.153406151716	412.747384130545	930.177870980303	742.491872546022	662.252207572628	836.580749878529	637.402166337845	716.250120178701	915.105801792669	581.279255417320	643.198401614379	907.339993605322	496.159018639526	648.248192289646	974.325728700936	796.784898197385	428.205103037611	936.857103684858	670.150009992988	343.535801226430	1049.094154751922	616.148124858192	395.553041651744	1073.662789833545	533.328341662965	381.846099498911	1026.319289499863	456.437160581349	377.449159617925	901.553024227625	372.182616303888	339.865253518791	938.287941032949	244.641994968357	389.665492728880	880.435205993261	408.089194342923	650.160698051764	802.649304997654	301.942881013460	698.880301048937	856.998132079013	209.756672807258	639.397955173957	733.462623732529	42.673425209686	587.133878157998	901.591177405058	98.982824243862	637.379948981373	811.463935757917	35.364936009217	668.478548041327	1019.268650688330	48.339887456275	671.321559360526	786.125532576025	115.565375083992	442.619937659967	844.779646217843	98.801179151431	352.613667972012	942.194227504221	143.016152531272	364.349127302962	1049.867084620315	68.839485955294	317.055857713917	754.443383178753	1109.374638451811	296.106272400738	771.501517199346	849.314219820902	288.793990038159	974.736381850225	1092.991660423991	863.808165757289	1196.945625516114	959.141192275384	835.322320196215	
54	4.668428571429	677.011016444886	1011.415063201698	574.218644872286	869.466204391032	1440.872266819413	405.331450391461	975.361815524194	1355.036507442372	557.530653709270	906.230280601701	1429.709691234545	738.190481344896	886.355045045163	1493.793235437627	564.541224259598	905.152336149542	946.468359255531	688.418397374905	886.187906692280	963.915170591046	413.204544954601	927.136734129830	741.808939236337	662.443028784725	832.484524429041	637.407492419826	716.763600901542	910.041248972027	580.549917080212	643.656139836078	901.364777870702	495.614208317881	648.578777496189	972.803032401540	797.904340373597	429.320432417186	937.230546206439	671.199986914398	343.888846358589	1049.251294980204	618.174841510784	396.899461675007	1075.544477877506	537.042975713199	382.809336379801	1031.803049094253	459.316684616163	377.524522434120	912.227427736454	368.794476248316	338.280385533763	955.608096421799	242.870048948318	387.439134811171	873.952029024469	407.839856276799	650.399995514830	795.649211898289	302.021913106241	699.097579008270	849.441875415139	209.584917066462	639.449133091754	725.165726653295	42.728886186651	587.169404596527	893.357741638092	98.870182529759	637.349217801433	803.149937619858	35.402812915899	668.424493005812	1010.982321209107	48.014637289641	671.326676982617	810.498981625680	105.371705805685	438.220565267846	870.739511763849	92.409524124933	348.665243414626	965.513984447639	141.554515195351	361.558917196104	1077.343816171367	73.317078957845	314.853632732163	749.440231356013	1110.112878759767	297.915897158151	752.230336720375	849.873454353280	288.658098854768	981.957882543663	1095.630403227582	864.742287936290	1212.104764000885	977.853352319794	831.916899502596	
55	4.680285714286	676.045945726133	1011.781184341206	575.356869456063	868.660024439849	1440.428488935413	405.512698432106	975.036477631136	1354.601938693039	557.321124466487	906.879810811341	1429.615906120890	738.169861343071	886.327946012967	1493.528735064409	564.642433977039	904.300944433906	946.280608389763	688.972983642473	884.697997915091	963.577735208211	413.597329987794	924.049880799451	741.066269279236	662.791144309286	828.187882953481	637.440382429308	717.261395879313	904.802516372589	579.813781760277	644.168682804217	895.196124575512	495.095874038482	648.951797988099	971.133494461811	798.571463024968	430.400262089507	937.083242831322	671.858301605060	344.210523640523	1048.763866032652	619.554219417554	398.212797013727	1076.622196277748	540.239817576517	383.903222348967	1036.556775833983	461.987898344561	377.784911577633	922.718121605032	365.430730815561	336.608207711552	972.606416605385	241.581602244658	385.351636454186	867.287642447421	407.647962813590	650.672023872189	788.484853626730	302.139626407750	699.327569280388	841.790533766475	209.470227569441	639.547806836602	716.863662179209	42.787055471988	587.229010906950	885.101402507416	98.772239014838	637.336875861837	794.826110856113	35.433250145693	668.381875426475	1002.687033665648	47.710195134529	671.340069220639	835.012146839849	96.078676392598	433.622951539822	896.943441841566	86.900900041155	344.769647766739	988.713502989825	140.855470145648	359.058316737640	1104.518848218700	78.737478608423	313.481710358585	744.402897707330	1111.078038337048	299.373210104363	734.146346907854	851.440720275631	288.465220721954	988.629292257551	1098.244888052545	865.257651994537	1225.525632484480	997.269809227230	828.038416107408	
56	4.692142857143	675.214397536556	1012.153405690631	576.317256514737	868.045438272234	1439.973619719482	405.523043227157	974.834081371909	1354.150317067003	556.988476713263	907.574361911298	1429.522740222167	737.991714955246	886.400170995451	1493.244399501482	564.569919109341	903.463157544826	946.087202829685	689.507364497895	883.395342860396	963.152129840071	413.938291576090	920.909263944628	740.263639436045	663.302302596176	823.678877529582	637.505463637480	717.738138035327	899.389417887438	579.073856034070	644.731468840950	888.848631043950	494.606594855750	649.368651225978	969.351381688528	798.796971358946	431.425413687049	936.409144072596	672.128723923840	344.481817935839	1047.688591320915	620.301993074694	399.410835946975	1076.934149783750	542.906050229157	385.076782430303	1040.575225445075	464.456344641966	378.193404509285	932.938666222921	362.169646376561	334.896970689685	989.150696557247	240.829164802187	383.431616929155	860.446161316214	407.511955480172	650.970855306863	781.159468367812	302.302619349776	699.566763069718	834.046913357028	209.416128138155	639.693110287086	708.553004320021	42.847173126675	587.311578243716	876.820577126169	98.687177803910	637.340236488942	786.491766181777	35.459568401653	668.353574365573	994.382978497248	47.432428941695	671.364619411569	859.468632785811	87.819162865280	428.969557673665	923.153468308700	82.356381698446	341.038470089072	1011.601191778944	140.958413466523	356.880988205851	1131.153066565615	85.079845998897	312.932555008853	739.322179753426	1112.312503429108	300.450066078200	717.358124386509	853.836244498520	288.237072526851	994.794066405631	1100.798485977530	865.348120243650	1237.146971801339	1017.184958438405	823.760706828837	
57	4.704000000000	674.503230406100	1012.535756654240	577.083438787227	867.639032220854	1439.506572876793	405.363785201530	974.761842945235	1353.675716697044	556.539259594752	908.311832836095	1429.426979274119	737.657091608285	886.583015185698	1492.937723266494	564.328236450283	902.631847986514	945.874043535734	690.021854062733	882.285851853640	962.646266607320	414.232569585480	917.716029491141	739.403405201823	663.959931099696	818.973419242547	637.601446260423	718.182128812664	893.824033942224	578.332523486571	645.325539206595	882.362041357422	494.143450236588	649.817568928476	967.495318028057	798.603094095800	432.375954032520	935.232951994871	672.024110408067	344.689585203757	1046.109829318697	620.456436523147	400.428803889185	1076.552142476417	545.045106755801	386.280496574523	1043.878231868745	466.725279775384	378.701587361822	942.784622092155	359.079720046735	333.213047149722	1005.098313103871	240.631209759598	381.698224962376	853.455922208791	407.424350101392	651.282170752051	773.699190378710	302.513548557572	699.807900196868	826.226178834211	209.420063750499	639.876042387360	700.232291557413	42.909028149418	587.414148589004	868.518526413238	98.613782589978	637.357569855690	778.147320093924	35.485873740465	668.339963984221	986.071658426630	47.182085887404	671.401553123124	883.632820159348	80.684657779594	424.434901857231	949.063840383533	78.810472080352	337.584096463555	1033.949143467368	141.852512029742	355.032124541412	1156.961475901779	92.246153186808	313.104640336698	734.209617717038	1113.835373507124	301.134009337264	701.937991509453	856.862310173277	287.990558177190	1000.503025076940	1103.262194249425	865.024369455695	1246.945242560417	1037.375049612831	819.160707436688	
